<?xml version="1.0" standalone="no"?>
<!DOCTYPE svg PUBLIC "-//W3C//DTD SVG 20010904//EN"
 "http://www.w3.org/TR/2001/REC-SVG-20010904/DTD/svg10.dtd">
<svg version="1.0" xmlns="http://www.w3.org/2000/svg"
 width="500.000000pt" height="500.000000pt" viewBox="0 0 500.000000 500.000000"
 preserveAspectRatio="xMidYMid meet">

<g transform="translate(0.000000,500.000000) scale(0.100000,-0.100000)"
fill="#000000" stroke="none">
<path d="M2390 4227 c-166 -39 -317 -171 -387 -339 -21 -50 -26 -78 -26 -139
l1 -75 -51 -24 c-29 -14 -88 -48 -131 -77 -44 -29 -80 -52 -81 -51 -2 2 -12
23 -25 48 -12 25 -76 147 -143 272 -88 164 -127 228 -139 228 -10 0 -18 -8
-18 -17 0 -10 59 -143 132 -296 132 -278 139 -302 101 -314 -5 -2 -72 127
-148 287 -76 160 -142 293 -146 296 -11 6 -37 -6 -42 -19 -3 -7 56 -140 130
-296 74 -156 133 -291 131 -300 -2 -9 -12 -16 -22 -16 -16 0 -46 56 -152 278
-72 153 -139 286 -147 294 -13 14 -19 14 -31 3 -9 -7 -16 -16 -16 -20 0 -4 61
-136 135 -293 74 -157 135 -290 135 -295 0 -17 -33 -23 -46 -10 -7 7 -72 140
-145 296 -76 162 -139 282 -146 282 -8 0 -16 -7 -19 -15 -3 -8 47 -143 111
-300 103 -250 122 -289 156 -320 22 -19 42 -35 47 -35 4 0 13 -4 20 -9 10 -6
3 -24 -31 -77 -86 -133 -140 -254 -184 -414 -26 -94 -27 -98 -32 -545 l-6
-450 -48 -5 c-30 -4 -55 -14 -70 -28 -21 -22 -22 -30 -25 -265 -3 -211 -1
-246 13 -273 20 -37 52 -54 100 -54 l35 0 0 -161 0 -161 29 -29 29 -29 1281 0
1280 0 28 24 28 24 3 166 3 166 39 0 c27 0 48 8 69 26 l31 26 0 259 0 260 -25
24 c-18 19 -35 25 -69 25 l-44 0 -5 428 c-5 468 -10 520 -75 699 l-28 77 60
40 c107 71 189 163 246 278 l52 103 -4 95 c-3 71 -9 105 -25 135 -63 119 -189
160 -315 103 -108 -50 -188 -161 -226 -315 l-17 -73 -72 74 c-71 71 -72 74
-63 107 14 49 12 147 -5 202 -68 224 -305 420 -603 498 -97 26 -312 34 -392
16z m415 -61 c157 -47 302 -133 412 -244 94 -96 143 -206 143 -321 -1 -88 -24
-138 -90 -190 -51 -41 -70 -44 -70 -14 0 30 -71 132 -132 189 -158 146 -335
216 -548 218 -124 0 -191 -14 -283 -61 -56 -28 -133 -96 -142 -124 -4 -10 -10
-19 -15 -19 -16 0 -43 49 -56 101 -47 179 156 443 376 489 25 5 106 8 180 6
110 -3 151 -8 225 -30z m-95 -401 c199 -53 379 -186 456 -335 25 -49 28 -66
28 -155 1 -55 -3 -113 -7 -129 l-8 -28 -25 51 c-16 31 -56 79 -105 125 -63 59
-102 86 -191 130 -127 62 -194 82 -328 95 -185 20 -336 -15 -468 -106 l-62
-44 24 64 c34 92 81 183 117 228 36 46 127 93 219 114 83 18 261 13 350 -10z
m-687 -165 c17 -28 17 -31 -5 -74 -17 -32 -46 -61 -108 -106 -47 -34 -118 -94
-157 -133 -66 -65 -73 -69 -73 -46 0 14 11 63 25 109 14 46 25 91 25 100 0 9
21 32 47 50 45 33 213 130 223 130 3 0 14 -13 23 -30z m2022 -45 c12 -31 16
-64 13 -113 -5 -96 -51 -184 -143 -277 -66 -65 -179 -144 -191 -133 -3 3 14
17 38 31 113 67 212 187 254 306 27 76 30 129 10 194 -17 58 -4 53 19 -8z
m-1473 -95 c141 -24 258 -65 258 -90 0 -23 -19 -38 -58 -46 -17 -4 -32 -14
-35 -24 -3 -13 -18 -20 -52 -25 -87 -14 -185 0 -278 40 -13 6 -16 4 -11 -10 6
-14 -1 -13 -42 8 -82 42 -142 120 -112 145 32 26 185 27 330 2z m-402 -45 c0
-54 169 -152 276 -160 32 -2 77 -9 99 -14 22 -6 62 -11 89 -11 l49 0 -21 -23
c-31 -33 -27 -38 16 -20 20 9 75 19 122 23 l85 6 -37 19 c-41 20 -49 35 -20
35 24 0 42 19 42 45 1 20 1 20 16 0 28 -36 71 -129 93 -199 25 -80 26 -135 6
-202 -8 -27 -15 -51 -15 -53 0 -2 18 17 41 43 46 52 78 59 103 24 31 -44 11
-139 -35 -172 -26 -17 -76 -21 -98 -7 -11 7 -22 1 -40 -24 -80 -103 -250 -175
-416 -175 -92 0 -159 16 -251 59 -84 39 -134 79 -173 137 -29 45 -30 49 -32
177 -6 334 -6 337 24 402 34 74 54 105 67 105 6 0 10 -7 10 -15z m1353 -240
c4 -50 13 -113 21 -140 10 -32 13 -61 8 -79 -7 -27 -11 -24 -71 77 -35 57
-103 150 -151 205 l-89 100 57 46 57 45 81 -82 81 -83 6 -89z m-1428 211 c-23
-35 -65 -173 -65 -216 0 -26 -3 -31 -10 -20 -5 8 -10 42 -10 75 0 69 33 152
71 178 30 21 35 15 14 -17z m-137 -50 c-11 -51 -19 -64 -73 -114 -33 -31 -79
-79 -102 -107 l-42 -49 -19 44 -19 45 51 59 c45 53 205 190 213 183 1 -2 -3
-29 -9 -61z m1059 -68 c104 -98 135 -175 97 -238 l-15 -25 5 25 c2 14 1 43 -3
65 l-8 40 -13 -48 c-13 -48 -29 -49 -30 -2 0 11 -5 38 -11 59 -8 29 -13 36
-20 25 -5 -8 -9 -25 -9 -39 0 -16 -9 -1 -24 40 -12 36 -30 79 -39 97 -38 71
-6 72 70 1z m385 -202 c33 -49 73 -116 89 -148 l29 -58 -25 -51 -26 -51 -54
109 c-29 59 -83 148 -120 197 l-67 89 7 56 7 56 50 -55 c27 -30 77 -95 110
-144z m-1847 123 c59 -52 61 -63 22 -122 -97 -147 -184 -378 -211 -559 -9 -58
-16 -170 -16 -250 0 -132 -2 -146 -20 -163 -11 -10 -20 -26 -20 -35 0 -9 9
-25 20 -35 18 -16 20 -31 20 -137 l0 -118 -61 0 -61 0 5 428 c4 461 7 486 67
662 48 137 174 360 205 360 8 0 30 -14 50 -31z m426 -135 c18 -30 19 -38 9
-70 -15 -45 -7 -109 17 -143 11 -14 27 -47 36 -72 25 -67 116 -149 218 -199
46 -22 90 -40 98 -40 13 -1 12 -3 -3 -12 -10 -6 -67 -11 -125 -11 -119 -1
-141 6 -235 71 -32 23 -74 46 -93 53 -45 14 -53 39 -53 152 0 68 -4 99 -16
115 -34 50 -98 9 -111 -72 l-6 -41 -19 44 -19 44 48 80 c26 43 84 117 128 164
l79 85 13 -57 c7 -32 23 -73 34 -91z m1323 -92 c60 -93 111 -203 141 -310 l25
-84 -30 -43 c-16 -23 -52 -59 -80 -79 -67 -48 -65 -69 12 -115 20 -12 51 -44
68 -71 18 -28 36 -50 41 -50 5 0 9 -111 9 -253 l0 -254 -25 -11 c-18 -8 -111
-12 -290 -12 l-263 0 -12 36 c-10 30 -9 42 6 77 23 53 50 84 94 107 52 27 127
108 146 156 25 65 16 151 -21 204 -57 82 -267 222 -359 239 -77 14 -65 21 38
21 175 0 287 41 360 133 26 32 31 47 31 95 0 46 -3 57 -16 56 -13 -1 -15 7
-12 45 3 25 1 57 -4 70 -7 18 -2 40 21 95 l31 72 21 -26 c12 -14 43 -58 68
-98z m-1641 57 c15 -37 15 -44 1 -70 -8 -16 -29 -35 -48 -43 -35 -15 -46 -41
-46 -115 0 -20 -9 -65 -21 -101 -34 -109 -50 -200 -56 -319 -6 -104 -9 -119
-34 -156 -62 -92 -63 -90 -56 105 7 191 23 281 77 435 45 125 139 305 159 305
4 0 15 -19 24 -41z m389 -53 c3 -13 2 -43 -2 -67 l-7 -44 -11 28 c-13 31 -15
67 -6 91 9 23 21 20 26 -8z m1675 -79 c67 -173 83 -324 83 -773 l0 -344 -60 0
-60 0 -1 283 c-1 155 -3 305 -5 333 -4 77 -30 218 -58 313 l-24 84 30 66 c26
60 50 91 69 91 3 0 15 -24 26 -53z m-1917 -107 c0 -76 5 -111 20 -150 31 -78
24 -160 -14 -186 -28 -17 -74 -6 -119 31 -18 14 -45 36 -62 49 -25 21 -28 26
-16 40 7 9 24 16 37 16 13 0 40 11 60 25 20 14 33 25 28 25 -5 0 -18 -6 -29
-14 -11 -7 -37 -16 -57 -20 -39 -7 -70 -39 -61 -62 2 -7 20 -22 39 -34 39 -22
37 -40 -3 -40 -41 0 -63 27 -63 77 0 45 23 103 41 103 5 0 24 -7 42 -16 31
-16 32 -16 16 2 -40 46 -72 231 -43 241 7 2 23 -26 38 -64 14 -37 35 -83 47
-102 26 -42 34 -32 42 54 8 75 25 125 43 125 11 0 14 -21 14 -100z m1793 -182
c8 -40 18 -91 22 -113 l7 -40 -27 25 c-32 29 -85 104 -85 119 0 6 12 36 26 68
30 67 33 64 57 -59z m-1640 -45 c40 -24 64 -47 78 -75 40 -79 18 -167 -49
-195 -32 -13 -42 -13 -101 1 -77 19 -167 68 -136 74 63 12 122 125 109 211 -8
50 -12 50 99 -16z m597 -47 c0 -13 -6 -26 -14 -29 -8 -3 -16 -21 -18 -39 -2
-26 -8 -33 -25 -34 -19 -1 -23 4 -23 31 0 18 3 47 6 64 6 27 10 31 40 31 29 0
34 -3 34 -24z m119 -18 c12 -20 11 -24 -15 -46 -33 -27 -85 -52 -109 -52 -12
0 -15 8 -13 32 2 25 10 36 33 46 17 7 41 19 55 26 34 19 33 19 49 -6z m846 -8
c12 -16 36 -42 55 -57 l35 -28 -62 -61 c-59 -58 -62 -60 -71 -38 -6 12 -30 38
-55 59 l-44 37 56 58 c31 32 58 58 61 59 3 0 14 -13 25 -29z m-1082 -8 c9 -8
17 -28 17 -44 0 -28 0 -28 -30 -13 -30 15 -48 54 -35 75 7 11 19 6 48 -18z
m-168 -8 l90 7 17 -31 17 -30 -29 0 c-57 0 -70 -93 -17 -118 24 -12 36 -11 84
4 47 15 60 16 87 5 113 -47 116 -48 132 -26 20 26 10 84 -18 108 -11 9 -16 17
-11 17 5 0 28 16 50 35 23 20 44 31 47 27 3 -5 16 -7 29 -5 40 8 204 -87 293
-169 55 -51 74 -90 74 -156 0 -57 -38 -124 -91 -164 -52 -39 -58 -40 -52 -18
8 29 -14 75 -42 90 -23 12 -62 10 -97 -5 -34 -14 -18 17 40 76 41 42 73 65
112 80 48 17 50 19 17 14 -21 -3 -45 -9 -54 -12 -13 -5 -14 -2 -4 18 11 23 10
23 -10 -2 l-21 -27 -74 23 c-41 13 -81 29 -89 35 -13 11 -14 10 -9 -4 3 -9 9
-16 13 -16 3 0 12 -4 19 -9 11 -7 11 -18 -2 -62 -8 -30 -17 -75 -21 -101 -6
-49 -9 -51 -70 -60 -13 -2 -23 -15 -30 -36 -7 -26 -17 -34 -45 -42 -68 -17
-114 -15 -163 9 -46 22 -50 23 -90 7 -54 -21 -72 -20 -125 4 l-44 20 7 67 c11
111 32 198 69 288 39 97 35 106 -9 16 l-29 -61 -45 0 c-25 0 -69 3 -97 6 l-52
7 20 34 c22 36 28 98 15 149 l-8 32 63 -15 c45 -11 89 -13 153 -9z m-646 -44
c14 0 25 -11 35 -33 30 -72 161 -147 261 -148 33 0 105 -6 161 -12 l100 -12
-8 -30 c-4 -16 -13 -77 -19 -135 -6 -58 -21 -145 -34 -195 -14 -49 -29 -109
-35 -133 l-11 -43 -255 3 c-299 4 -284 -2 -284 112 0 61 4 78 30 118 17 26 49
61 72 78 64 44 68 49 68 74 0 16 -14 33 -50 57 -28 19 -66 57 -85 86 -37 55
-43 94 -29 196 l7 46 28 -14 c15 -8 37 -15 48 -15z m81 -15 c0 -5 -5 -3 -10 5
-5 8 -10 20 -10 25 0 6 5 3 10 -5 5 -8 10 -19 10 -25z m1930 -355 l0 -290 -45
0 -45 0 0 251 0 251 39 39 c21 22 41 39 45 39 3 0 6 -130 6 -290z m-2065 75
c16 -17 41 -38 55 -48 19 -13 21 -19 11 -24 -23 -10 -93 -76 -111 -106 l-17
-27 -26 39 c-14 21 -46 54 -71 72 l-46 32 29 18 c15 9 48 40 72 68 l44 52 15
-23 c8 -13 28 -37 45 -53z m1369 -117 c9 -12 16 -32 16 -44 0 -22 -41 -74 -59
-74 -5 0 -12 -15 -16 -32 -16 -75 -61 -102 -83 -50 -9 21 -11 22 -8 5 9 -50
-35 -38 -58 15 -14 32 -15 34 -12 9 4 -35 -7 -42 -29 -17 -35 38 -4 142 50
169 40 19 111 39 147 40 28 1 41 -5 52 -21z m-1491 -92 c31 -45 37 -63 37
-105 l0 -51 -45 0 -45 0 0 105 c0 58 3 105 8 105 4 0 24 -25 45 -54z m1236 32
c-17 -34 -19 -34 -19 -5 0 18 5 27 15 27 13 0 14 -4 4 -22z m-433 -158 c-3
-14 -9 -46 -12 -72 l-7 -48 -59 0 -58 0 6 28 c7 31 33 130 39 150 3 9 17 6 50
-10 41 -20 46 -26 41 -48z m424 20 c6 -11 18 -20 28 -20 9 0 26 -7 36 -15 11
-8 27 -15 36 -15 32 0 70 -26 80 -54 5 -16 10 -31 10 -32 0 -2 -114 -4 -254
-4 -223 0 -255 2 -260 16 -9 23 2 34 34 34 29 0 70 38 70 65 0 8 25 14 69 19
38 3 80 10 93 15 35 15 46 13 58 -9z m-492 -307 c3 -20 -2 -22 -45 -25 -62 -4
-68 -31 -8 -38 56 -7 55 -34 -2 -38 -40 -3 -42 -4 -45 -40 -3 -40 -27 -54 -53
-32 -19 16 -21 170 -3 188 9 9 37 12 83 10 63 -3 70 -5 73 -25z m249 -8 c33
-33 35 -39 30 -82 -7 -63 -40 -93 -103 -93 -63 0 -104 40 -104 100 0 51 12 75
48 94 48 27 90 20 129 -19z m257 25 c35 -13 59 -54 59 -102 0 -111 -168 -138
-203 -32 -31 92 52 169 144 134z m299 -30 c26 -29 29 -38 24 -79 -7 -64 -40
-91 -113 -91 -50 0 -55 2 -65 28 -15 39 -7 161 11 173 8 5 37 8 64 6 41 -4 55
-10 79 -37z m817 -497 c0 -122 -3 -149 -17 -165 -15 -17 -68 -18 -1270 -18
-846 0 -1261 3 -1274 10 -18 10 -19 23 -19 165 l0 155 1290 0 1290 0 0 -147z"/>
<path d="M2155 3928 c2 -35 12 -73 26 -98 30 -52 34 -46 9 16 -10 27 -23 69
-29 94 l-10 45 4 -57z"/>
<path d="M3110 3903 c0 -44 -35 -124 -74 -171 -16 -18 -21 -30 -12 -26 17 7
56 55 79 99 21 41 32 121 18 129 -7 5 -11 -6 -11 -31z"/>
<path d="M2151 3306 c-24 -13 -24 -14 18 -21 23 -4 66 -20 96 -36 45 -24 55
-26 55 -13 0 9 -15 31 -34 50 -27 27 -42 34 -72 34 -22 -1 -50 -7 -63 -14z"/>
<path d="M2161 3174 c-27 -19 -61 -88 -60 -124 0 -23 2 -21 20 12 10 21 29 42
40 49 20 10 21 9 14 -22 -7 -31 -6 -32 9 -16 31 30 53 15 42 -29 -7 -27 -46
-35 -46 -8 0 9 -5 12 -11 8 -19 -12 -4 -96 21 -116 30 -24 73 -23 96 3 23 25
31 131 14 183 -22 67 -88 95 -139 60z m137 -147 c2 -10 -3 -17 -12 -17 -10 0
-16 9 -16 21 0 24 23 21 28 -4z"/>
<path d="M2743 3173 c9 -2 25 -2 35 0 9 3 1 5 -18 5 -19 0 -27 -2 -17 -5z"/>
<path d="M2719 3131 c-40 -21 -79 -83 -79 -126 0 -28 2 -27 30 23 34 58 43 65
34 25 -4 -19 -3 -24 4 -15 14 20 46 10 50 -14 2 -11 -5 -27 -14 -35 -14 -12
-19 -10 -35 10 l-19 23 0 -54 c0 -63 17 -86 72 -94 27 -5 40 -1 63 18 23 20
29 35 34 89 l7 64 16 -45 16 -45 1 45 c2 101 -99 174 -180 131z m126 -131 c0
-8 -8 -16 -17 -18 -13 -2 -18 3 -18 18 0 15 5 20 18 18 9 -2 17 -10 17 -18z"/>
<path d="M2377 2899 c-18 -11 -23 -44 -7 -54 6 -3 7 1 4 10 -4 10 1 21 12 30
23 16 16 27 -9 14z"/>
<path d="M3052 2883 c-14 -5 -56 -82 -49 -89 10 -11 57 17 56 33 0 16 -1 16
-8 -1 -5 -13 -10 -16 -15 -8 -4 6 -2 21 4 32 10 20 21 24 49 21 7 -2 10 2 6 8
-7 12 -21 13 -43 4z"/>
<path d="M2356 2723 c30 -57 67 -89 111 -98 40 -7 96 15 118 48 15 23 38 88
32 93 -1 1 -35 -5 -75 -14 -72 -15 -133 -11 -194 13 -14 6 -13 -1 8 -42z m229
-15 c-25 -48 -54 -68 -102 -68 -54 0 -104 38 -87 67 9 14 29 19 98 24 47 3 89
9 93 12 15 15 13 -3 -2 -35z"/>
<path d="M2299 2251 c-23 -19 -20 -55 6 -65 23 -8 59 27 51 51 -9 30 -31 35
-57 14z"/>
<path d="M2584 2216 c-11 -29 1 -61 24 -64 26 -4 45 33 30 61 -11 21 -46 23
-54 3z"/>
<path d="M2242 2078 c-17 -17 -15 -53 3 -68 12 -10 21 -10 41 -1 21 9 25 17
22 44 -2 26 -8 33 -28 35 -14 2 -31 -3 -38 -10z"/>
<path d="M2550 2045 c-7 -8 -10 -25 -6 -40 8 -31 50 -35 66 -5 23 42 -30 81
-60 45z"/>
<path d="M2340 1455 c-14 -36 -13 -47 6 -73 24 -35 46 -11 42 47 -4 55 -31 70
-48 26z"/>
<path d="M2626 1464 c-11 -30 -6 -82 10 -95 32 -26 58 46 34 92 -13 23 -36 25
-44 3z"/>
<path d="M2910 1418 c0 -57 1 -61 16 -46 16 16 22 77 9 97 -15 26 -25 7 -25
-51z"/>
<path d="M1882 1024 c-28 -19 -30 -74 -4 -97 25 -22 75 -21 95 1 25 27 21 32
-20 29 -34 -2 -38 1 -38 22 0 13 5 26 12 28 7 3 9 -3 6 -17 -5 -18 -2 -21 18
-18 30 4 38 37 13 55 -24 17 -55 16 -82 -3z"/>
<path d="M2072 1024 c-18 -12 -22 -25 -22 -65 0 -42 3 -49 20 -49 11 0 20 7
20 15 0 8 6 15 14 15 8 0 16 -7 20 -15 7 -20 32 -19 40 1 11 30 6 61 -15 88
-23 30 -45 33 -77 10z m48 -39 c0 -8 -7 -15 -15 -15 -8 0 -15 7 -15 15 0 8 7
15 15 15 8 0 15 -7 15 -15z"/>
<path d="M2227 1034 c-12 -12 -8 -22 12 -29 15 -4 21 -17 23 -48 2 -34 7 -42
23 -42 16 0 21 8 23 42 2 32 8 44 23 48 37 12 13 30 -42 33 -30 2 -58 0 -62
-4z"/>
<path d="M2417 1034 c-4 -4 -7 -34 -7 -66 l0 -59 50 3 c52 3 69 21 25 26 -30
4 -34 22 -5 22 11 0 20 7 20 15 0 8 -9 15 -20 15 -29 0 -25 18 5 22 14 2 27 8
28 13 2 12 -85 20 -96 9z"/>
<path d="M2576 1024 c-9 -23 -7 -87 3 -103 11 -17 41 -7 41 14 0 22 21 18 27
-5 3 -11 13 -20 23 -20 27 0 26 106 -1 120 -29 16 -86 12 -93 -6z m64 -24 c0
-5 -4 -10 -10 -10 -5 0 -10 5 -10 10 0 6 5 10 10 10 6 0 10 -4 10 -10z"/>
<path d="M2755 1017 c-4 -13 -5 -41 -3 -63 2 -31 7 -39 23 -39 18 0 20 7 20
60 0 48 -3 60 -17 63 -11 2 -19 -5 -23 -21z"/>
<path d="M2864 1026 c-3 -7 -4 -35 -2 -62 2 -36 7 -49 18 -49 8 0 17 11 18 24
l4 23 28 -27 c44 -42 62 -29 58 42 -2 43 -7 58 -18 58 -8 0 -17 -10 -20 -23
l-5 -24 -24 26 c-27 29 -49 33 -57 12z"/>
<path d="M3072 1024 c-28 -19 -30 -74 -4 -97 24 -22 76 -22 97 -1 22 22 14 38
-20 42 -22 3 -27 0 -21 -13 4 -11 2 -15 -6 -13 -15 5 -22 33 -14 55 6 14 8 14
19 -1 15 -21 47 -12 47 14 0 32 -60 41 -98 14z"/>
<path d="M1394 985 c-12 -31 7 -35 156 -35 116 0 149 3 153 14 12 30 -16 36
-160 36 -116 0 -145 -3 -149 -15z"/>
<path d="M3334 985 c-12 -31 7 -35 156 -35 150 0 174 6 150 35 -18 22 -298 22
-306 0z"/>
</g>
</svg>
